<?xml version="1.0" encoding="UTF-8"?>
<svg version="1.1" xmlns="http://www.w3.org/2000/svg" width="2048" height="2048">
<path d="M0 0 C1.86296614 -0.0070215 3.72593204 -0.01410832 5.58889771 -0.02125549 C11.51239364 -0.04066359 17.43585048 -0.04568967 23.359375 -0.046875 C24.36816963 -0.04731686 25.37696426 -0.04775871 26.41632843 -0.04821396 C56.74547781 -0.05518299 86.90361524 0.18549341 117.109375 3.203125 C118.00553528 3.29033813 118.90169556 3.37755127 119.82501221 3.46740723 C159.23752608 7.30937472 198.35183658 13.07659996 237.109375 21.203125 C238.39473145 21.47205566 239.68008789 21.74098633 241.00439453 22.01806641 C275.43270999 29.31806586 309.47492637 38.41490108 342.88598633 49.46807861 C345.17230278 50.22392876 347.46011145 50.97514036 349.74804688 51.72607422 C372.90155974 59.34596822 395.61706099 67.81206395 418.109375 77.203125 C418.74796448 77.46891357 419.38655396 77.73470215 420.04449463 78.00854492 C491.25180271 107.67307615 558.21539269 145.59986769 621.109375 190.203125 C621.88313477 190.7511377 622.65689453 191.29915039 623.45410156 191.86376953 C639.91720002 203.55235864 655.75741578 215.98226691 671.36962891 228.77929688 C672.92885827 230.05538804 674.493386 231.32499881 676.05859375 232.59375 C686.52971322 241.09293602 696.74212934 249.87165181 706.6796875 258.98828125 C708.71452915 260.84319317 710.77258747 262.65741298 712.859375 264.453125 C722.49087027 272.84375278 731.70254006 281.69926236 740.6730957 290.78833008 C744.05454069 294.19931194 747.55453083 297.38288846 751.22241211 300.48608398 C753.09691145 302.1917838 754.70065861 303.96810852 756.3359375 305.90234375 C760.06296815 310.21465552 764.04212749 314.21379411 768.109375 318.203125 C772.7543063 322.75907294 777.21922704 327.37895779 781.46582031 332.31005859 C783.89976824 335.1135096 786.44468283 337.80835846 788.984375 340.515625 C793.52286024 345.38898049 797.80286297 350.40616477 801.97265625 355.6015625 C804.06819994 358.15299229 806.24900655 360.58639273 808.484375 363.015625 C812.46199185 367.38549819 816.11814094 371.93922036 819.73730469 376.60424805 C823.33403439 381.23705993 827.01834988 385.79064 830.734375 390.328125 C836.03635739 396.82683174 841.17007025 403.42303711 846.109375 410.203125 C846.58842285 410.86006348 847.0674707 411.51700195 847.56103516 412.19384766 C859.05564431 427.98416873 870.40568791 443.86372123 881.109375 460.203125 C881.53541016 460.8518457 881.96144531 461.50056641 882.40039062 462.16894531 C900.68270617 490.05286214 917.46474747 518.76033885 933.109375 548.203125 C933.64272461 549.20134277 934.17607422 550.19956055 934.72558594 551.22802734 C943.46340269 567.61471371 951.46525219 584.28050123 959.109375 601.203125 C959.58616699 602.25467773 960.06295898 603.30623047 960.55419922 604.38964844 C985.11332735 658.73434849 1004.62236309 715.37039083 1019.109375 773.203125 C1019.2952417 773.94119385 1019.4811084 774.6792627 1019.67260742 775.43969727 C1033.38167229 829.95231291 1042.22237994 885.56913768 1046.796875 941.578125 C1046.88828262 942.69252457 1046.88828262 942.69252457 1046.98153687 943.82943726 C1048.47605402 962.28632558 1049.26918423 980.70968686 1049.3125 999.2265625 C1049.31948023 1001.09113588 1049.32652118 1002.95570904 1049.33361816 1004.82028198 C1049.35287623 1010.73956604 1049.35779318 1016.65881301 1049.359375 1022.578125 C1049.35996414 1023.58550217 1049.36055328 1024.59287933 1049.36116028 1025.63078308 C1049.37320253 1054.79175109 1049.19301366 1083.80771968 1046.33721924 1112.85516357 C1046.10441009 1115.25428899 1045.88604669 1117.65436234 1045.67138672 1120.05517578 C1041.08410278 1171.04493268 1032.34597658 1221.50822984 1020.109375 1271.203125 C1019.91408203 1271.99632141 1019.71878906 1272.78951782 1019.51757812 1273.60675049 C1013.55944643 1297.70658205 1006.60579727 1321.42389763 998.83532715 1344.99987793 C998.13660489 1347.12048294 997.4416031 1349.2422777 996.74707031 1351.36425781 C982.67406805 1394.22484942 965.06842394 1435.77207627 945.109375 1476.203125 C944.38664457 1477.67704696 943.66397627 1479.15099939 942.94140625 1480.625 C941.40752435 1483.737537 939.84745055 1486.83582721 938.27050781 1489.92675781 C937.39217662 1491.64870063 936.51709277 1493.37230038 935.64355469 1495.09667969 C927.79854293 1510.55720733 919.54538936 1525.68166071 910.66992188 1540.57421875 C909.26440783 1542.94195579 907.87695125 1545.31870083 906.5 1547.703125 C881.52718493 1590.87877318 852.19371985 1631.9271151 820.54931641 1670.44726562 C819.26571799 1672.01248092 817.98974428 1673.583942 816.71484375 1675.15625 C808.2186202 1685.62727146 799.43950678 1695.83734154 790.32421875 1705.7734375 C788.46930683 1707.80827915 786.65508702 1709.86633747 784.859375 1711.953125 C776.46874722 1721.58462027 767.61323764 1730.79629006 758.52416992 1739.7668457 C755.11318806 1743.14829069 751.92961154 1746.64828083 748.82641602 1750.31616211 C747.1207162 1752.19066145 745.34439148 1753.79440861 743.41015625 1755.4296875 C739.09784448 1759.15671815 735.09870589 1763.13587749 731.109375 1767.203125 C726.55342706 1771.8480563 721.93354221 1776.31297704 717.00244141 1780.55957031 C714.1989904 1782.99351824 711.50414154 1785.53843283 708.796875 1788.078125 C703.92351951 1792.61661024 698.90633523 1796.89661297 693.7109375 1801.06640625 C691.15950771 1803.16194994 688.72610727 1805.34275655 686.296875 1807.578125 C681.92236674 1811.55996087 677.36408425 1815.22054583 672.69287109 1818.84204102 C668.87622932 1821.80357984 665.11725783 1824.82272329 661.38964844 1827.89550781 C652.65004165 1835.09104511 643.63166013 1841.84906829 634.46777344 1848.49316406 C632.21199471 1850.1287204 629.96104915 1851.77072253 627.7109375 1853.4140625 C611.19157234 1865.44721355 594.5575427 1877.32693761 577.10351562 1887.97265625 C574.97132245 1889.28830924 572.85937183 1890.632451 570.75 1891.984375 C553.11415021 1903.28078576 535.00100583 1913.7974084 516.61962891 1923.83251953 C514.80538981 1924.82309902 512.99276489 1925.81663681 511.18115234 1926.81201172 C497.04318706 1934.57158548 482.80536522 1941.95532224 468.18408203 1948.76074219 C464.93803795 1950.28350131 461.70898322 1951.83888113 458.48046875 1953.3984375 C400.32249029 1981.29028283 338.62682139 2002.54259981 276.109375 2018.203125 C275.37130615 2018.3889917 274.6332373 2018.5748584 273.87280273 2018.76635742 C222.89096663 2031.58748681 170.85022877 2040.39918551 118.480896 2044.99023438 C116.13656116 2045.20068451 113.794168 2045.42642506 111.45166016 2045.65625 C54.18169321 2051.19090931 -6.08729434 2051.22115165 -63.33905029 2045.45959473 C-66.04062359 2045.188048 -68.74311052 2044.92717293 -71.44580078 2044.66699219 C-160.30628974 2036.01099102 -247.53699533 2016.49949328 -416.890625 1949.203125 C-418.75641336 1948.33182339 -420.62229643 1947.46072454 -422.48828125 1946.58984375 C-448.52947338 1934.37994181 -474.25601711 1920.68886129 -498.72021484 1905.54248047 C-501.48514319 1903.8362491 -504.26054295 1902.14746617 -507.03515625 1900.45703125 C-518.11237435 1893.69405605 -529.16264629 1886.91307198 -539.87451172 1879.58007812 C-542.26049212 1877.95051534 -544.65567639 1876.33487076 -547.05078125 1874.71875 C-566.13494295 1861.81353826 -584.65125078 1848.27522498 -602.890625 1834.203125 C-603.55578125 1833.69007812 -604.2209375 1833.17703125 -604.90625 1832.6484375 C-622.64219981 1818.92960453 -639.93678517 1804.57708241 -656.4609375 1789.41796875 C-658.49577915 1787.56305683 -660.55383747 1785.74883702 -662.640625 1783.953125 C-672.27212027 1775.56249722 -681.48379006 1766.70698764 -690.4543457 1757.61791992 C-693.83579069 1754.20693806 -697.33578083 1751.02336154 -701.00366211 1747.92016602 C-702.87816145 1746.2144662 -704.48190861 1744.43814148 -706.1171875 1742.50390625 C-709.84421815 1738.19159448 -713.82337749 1734.19245589 -717.890625 1730.203125 C-722.5355563 1725.64717706 -727.00047704 1721.02729221 -731.24707031 1716.09619141 C-733.68101824 1713.2927404 -736.22593283 1710.59789154 -738.765625 1707.890625 C-743.30411024 1703.01726951 -747.58411297 1698.00008523 -751.75390625 1692.8046875 C-753.84944994 1690.25325771 -756.03025655 1687.81985727 -758.265625 1685.390625 C-762.24324185 1681.02075181 -765.89939094 1676.46702964 -769.51855469 1671.80200195 C-773.11528439 1667.16919007 -776.79959988 1662.61561 -780.515625 1658.078125 C-785.81760739 1651.57941826 -790.95132025 1644.98321289 -795.890625 1638.203125 C-796.36967285 1637.54618652 -796.8487207 1636.88924805 -797.34228516 1636.21240234 C-808.83689431 1620.42208127 -820.18693791 1604.54252877 -830.890625 1588.203125 C-831.52967773 1587.23004395 -831.52967773 1587.23004395 -832.18164062 1586.23730469 C-850.2324661 1558.70645309 -866.83302715 1530.39147182 -882.24707031 1501.30224609 C-883.81572024 1498.34436698 -885.3955671 1495.3926992 -886.9765625 1492.44140625 C-894.86253009 1477.62725488 -901.9773884 1462.49234851 -908.890625 1447.203125 C-909.60798828 1445.62144531 -909.60798828 1445.62144531 -910.33984375 1444.0078125 C-934.89690076 1389.66586561 -954.40443765 1333.0325675 -968.890625 1275.203125 C-969.0764917 1274.46505615 -969.2623584 1273.7269873 -969.45385742 1272.96655273 C-980.5709885 1228.76048186 -988.50565375 1183.86843324 -993.578125 1138.578125 C-993.72343155 1137.31411362 -993.72343155 1137.31411362 -993.87167358 1136.02456665 C-997.87569006 1100.78189064 -999.40859782 1065.42413928 -999.28173828 1029.97363281 C-999.26464819 1025.16500959 -999.27485164 1020.35688516 -999.29206085 1015.54827881 C-999.39852722 980.33520233 -997.6410977 945.2003769 -993.640625 910.203125 C-993.53835602 909.28561462 -993.43608704 908.36810425 -993.33071899 907.42279053 C-985.93345701 841.41033602 -972.42373539 775.57240609 -951.62963867 712.44696045 C-950.848982 710.07668615 -950.07392909 707.70461592 -949.29882812 705.33251953 C-941.07725668 680.2552961 -931.96113245 655.59600697 -921.890625 631.203125 C-921.61881409 630.54411194 -921.34700317 629.88509888 -921.06695557 629.20611572 C-892.0151779 558.95322965 -854.66833149 492.09691279 -810.39697266 430.30664062 C-808.8418046 428.13495052 -807.29399683 425.95812262 -805.74609375 423.78125 C-794.51265771 408.04283582 -782.56990765 392.8943691 -770.31445312 377.94287109 C-769.03836196 376.38364173 -767.76875119 374.819114 -766.5 373.25390625 C-758.00081398 362.78278678 -749.22209819 352.57037066 -740.10546875 342.6328125 C-738.25055683 340.59797085 -736.43633702 338.53991253 -734.640625 336.453125 C-726.24999722 326.82162973 -717.39448764 317.60995994 -708.30541992 308.6394043 C-704.89443806 305.25795931 -701.71086154 301.75796917 -698.60766602 298.09008789 C-696.9019662 296.21558855 -695.12564148 294.61184139 -693.19140625 292.9765625 C-688.87909448 289.24953185 -684.87995589 285.27037251 -680.890625 281.203125 C-676.33467706 276.5581937 -671.71479221 272.09327296 -666.78369141 267.84667969 C-663.9802404 265.41273176 -661.28539154 262.86781717 -658.578125 260.328125 C-653.70476951 255.78963976 -648.68758523 251.50963703 -643.4921875 247.33984375 C-640.94075771 245.24430006 -638.50735727 243.06349345 -636.078125 240.828125 C-631.70825181 236.85050815 -627.15452964 233.19435906 -622.48950195 229.57519531 C-617.85669007 225.97846561 -613.30311 222.29415012 -608.765625 218.578125 C-602.26691826 213.27614261 -595.67071289 208.14242975 -588.890625 203.203125 C-587.90521729 202.48455322 -587.90521729 202.48455322 -586.89990234 201.75146484 C-571.10958127 190.25685569 -555.23002877 178.90681209 -538.890625 168.203125 C-538.2419043 167.77708984 -537.59318359 167.35105469 -536.92480469 166.91210938 C-509.04088786 148.62979383 -480.33341115 131.84775253 -450.890625 116.203125 C-449.89240723 115.66977539 -448.89418945 115.13642578 -447.86572266 114.58691406 C-431.48183795 105.85059123 -414.8366818 97.78791668 -397.890625 90.203125 C-396.85424896 89.73876038 -396.85424896 89.73876038 -395.79693604 89.26501465 C-317.77646074 54.36512507 -235.85698962 29.01262032 0 0 Z " fill="#FF0000" transform="translate(998.890625,-0.203125)"/>
<path d="M0 0 C3.61079886 -0.00217693 7.22128642 -0.02037776 10.83203125 -0.03930664 C33.6727526 -0.09681543 56.13410078 1.53987097 78.70703125 4.99780273 C79.58218384 5.12946838 80.45733643 5.26113403 81.35900879 5.39678955 C177.10379155 19.81853436 267.80682689 59.95048589 342.4296875 121.7746582 C343.94666116 123.02253317 345.48182008 124.24822932 347.01953125 125.47045898 C360.84630398 136.47838072 373.2121635 149.15902328 385.70703125 161.62280273 C386.62571487 162.53746811 386.62571487 162.53746811 387.56295776 163.47061157 C393.97656996 169.86294858 400.31626872 176.24592945 406.14453125 183.18530273 C407.02109106 184.19532462 407.898644 185.20448575 408.77734375 186.21264648 C416.25365629 194.94282336 423.24872944 203.99221044 430.14453125 213.18530273 C430.7267041 213.95712891 431.30887695 214.72895508 431.90869141 215.52416992 C440.14049904 226.45341876 447.94290897 237.54974047 455.14453125 249.18530273 C455.62100098 249.95422852 456.0974707 250.7231543 456.58837891 251.51538086 C499.21726901 320.67671689 526.98777336 397.94601045 534.92254639 478.96627808 C535.07733585 480.5135982 535.23922572 482.0602174 535.40655518 483.60623169 C537.12872263 499.57557577 537.45918197 515.47064236 537.40527344 531.51855469 C537.39389115 534.93445954 537.40065798 538.3500522 537.41215229 541.76594639 C537.45940671 558.32722089 536.92246265 574.71117179 535.14453125 591.18530273 C535.03464874 592.22214706 535.03464874 592.22214706 534.92254639 593.27993774 C534.50263403 597.15481168 534.00380654 601.01395182 533.45703125 604.87280273 C533.29114502 606.05084473 533.12525879 607.22888672 532.9543457 608.44262695 C522.3702418 680.8789046 498.56552905 750.61807486 460.14453125 813.18530273 C459.68079102 813.94262695 459.21705078 814.69995117 458.73925781 815.48022461 C445.40891014 837.15428355 430.47980645 857.67451869 414.14453125 877.18530273 C413.73025879 877.68449219 413.31598633 878.18368164 412.88916016 878.69799805 C401.99799826 891.81900538 390.3626518 904.13824889 378.28857422 916.17163086 C376.37870131 918.07608779 374.47430976 919.98591093 372.5703125 921.89624023 C366.59926047 927.87083189 360.62507369 933.7576323 354.14453125 939.18530273 C353.13439484 940.06173057 352.12523173 940.93928183 351.1171875 941.81811523 C342.38701063 949.29442778 333.33762354 956.28950093 324.14453125 963.18530273 C323.37270508 963.76747559 322.60087891 964.34964844 321.80566406 964.94946289 C310.87701376 973.18081972 299.77207522 980.97207895 288.14453125 988.18530273 C287.54286133 988.55929199 286.94119141 988.93328125 286.32128906 989.31860352 C281.96826684 992.00879537 277.56860053 994.61388025 273.14453125 997.18530273 C272.30680176 997.67256836 271.46907227 998.15983398 270.60595703 998.66186523 C228.39737785 1023.10355986 183.42375158 1042.04352447 136.14453125 1054.18530273 C134.93120117 1054.51038818 134.93120117 1054.51038818 133.69335938 1054.84204102 C104.50791159 1062.66087351 74.22869732 1066.92301793 44.14453125 1069.18530273 C42.53026749 1069.31459671 42.53026749 1069.31459671 40.88339233 1069.44650269 C32.93419244 1070.05964312 25.03787464 1070.3568698 17.06640625 1070.38842773 C15.26944809 1070.3989492 15.26944809 1070.3989492 13.43618774 1070.40968323 C9.58893015 1070.42708664 5.74182677 1070.4335363 1.89453125 1070.43530273 C0.57640442 1070.43597748 -0.74172241 1070.43665222 -2.09979248 1070.43734741 C-22.53710542 1070.42975167 -42.58181614 1069.83832064 -62.85546875 1067.18530273 C-64.19201806 1067.01702209 -65.52860742 1066.84905926 -66.86523438 1066.68139648 C-95.89254752 1062.98504751 -124.95902621 1057.06377876 -152.85546875 1048.18530273 C-154.64138428 1047.62335205 -154.64138428 1047.62335205 -156.46337891 1047.05004883 C-223.59428173 1025.83845178 -285.80838196 992.43586954 -339.85546875 947.18530273 C-340.3546582 946.77103027 -340.85384766 946.35675781 -341.36816406 945.92993164 C-354.48917139 935.03876975 -366.80841491 923.40342329 -378.84179688 911.3293457 C-380.7462538 909.41947279 -382.65607694 907.51508125 -384.56640625 905.61108398 C-390.5409979 899.64003195 -396.42779831 893.66584517 -401.85546875 887.18530273 C-402.73189659 886.17516633 -403.60944785 885.16600321 -404.48828125 884.15795898 C-411.96459379 875.42778211 -418.95966694 866.37839503 -425.85546875 857.18530273 C-426.4376416 856.41347656 -427.01981445 855.64165039 -427.61962891 854.84643555 C-435.85179668 843.91670856 -443.64966767 832.81870262 -450.85546875 821.18530273 C-451.32662109 820.42701172 -451.79777344 819.6687207 -452.28320312 818.88745117 C-485.16866987 765.695538 -509.47086004 707.54126688 -521.85546875 646.18530273 C-522.06413574 645.17419434 -522.27280273 644.16308594 -522.48779297 643.12133789 C-525.04401849 630.69626289 -527.25965703 618.24557807 -529.04296875 605.68530273 C-529.19773682 604.62102051 -529.35250488 603.55673828 -529.51196289 602.46020508 C-532.51402652 580.35365497 -533.26200289 558.1669077 -533.23302841 535.88038254 C-533.2304266 533.77621741 -533.23109267 531.67206794 -533.23184204 529.56790161 C-533.22338868 509.06445518 -532.40595033 488.9129555 -529.35498047 468.61401367 C-528.89939015 465.48678471 -528.5281052 462.36744135 -528.203125 459.22436523 C-518.70323832 369.76185627 -477.83160218 280.64590533 -409.85546875 193.18530273 C-409.44119629 192.68611328 -409.02692383 192.18692383 -408.60009766 191.67260742 C-397.70893576 178.55160009 -386.0735893 166.23235657 -373.99951172 154.19897461 C-372.08963881 152.29451768 -370.18524726 150.38469454 -368.28125 148.47436523 C-362.31019797 142.49977358 -356.33601119 136.61297317 -349.85546875 131.18530273 C-348.84533234 130.3088749 -347.83616923 129.43132364 -346.828125 128.55249023 C-338.09794813 121.07617769 -329.04856104 114.08110454 -319.85546875 107.18530273 C-319.08364258 106.60312988 -318.31181641 106.02095703 -317.51660156 105.42114258 C-306.58687457 97.1889748 -295.48886863 89.39110381 -283.85546875 82.18530273 C-283.09717773 81.71415039 -282.33888672 81.24299805 -281.55761719 80.75756836 C-214.73887326 39.44742457 -140.3989606 12.35090217 -62.29296875 3.31030273 C-60.95451401 3.15484482 -60.95451401 3.15484482 -59.58901978 2.99624634 C-39.6977603 0.72194145 -20.01943 -0.00134395 0 0 Z " fill="#FF0000" transform="translate(1021.85546875,488.814697265625)"/>
<path d="M0 0 C3.61079886 -0.00217693 7.22128642 -0.02037776 10.83203125 -0.03930664 C33.6727526 -0.09681543 56.13410078 1.53987097 78.70703125 4.99780273 C79.58218384 5.12946838 80.45733643 5.26113403 81.35900879 5.39678955 C177.10379155 19.81853436 267.80682689 59.95048589 342.4296875 121.7746582 C343.94666116 123.02253317 345.48182008 124.24822932 347.01953125 125.47045898 C360.84630398 136.47838072 373.2121635 149.15902328 385.70703125 161.62280273 C386.62571487 162.53746811 386.62571487 162.53746811 387.56295776 163.47061157 C393.97656996 169.86294858 400.31626872 176.24592945 406.14453125 183.18530273 C407.02109106 184.19532462 407.898644 185.20448575 408.77734375 186.21264648 C416.25365629 194.94282336 423.24872944 203.99221044 430.14453125 213.18530273 C430.7267041 213.95712891 431.30887695 214.72895508 431.90869141 215.52416992 C440.14049904 226.45341876 447.94290897 237.54974047 455.14453125 249.18530273 C455.62100098 249.95422852 456.0974707 250.7231543 456.58837891 251.51538086 C499.21726901 320.67671689 526.98777336 397.94601045 534.92254639 478.96627808 C535.07733585 480.5135982 535.23922572 482.0602174 535.40655518 483.60623169 C537.12872263 499.57557577 537.45918197 515.47064236 537.40527344 531.51855469 C537.39389115 534.93445954 537.40065798 538.3500522 537.41215229 541.76594639 C537.45940671 558.32722089 536.92246265 574.71117179 535.14453125 591.18530273 C535.03464874 592.22214706 535.03464874 592.22214706 534.92254639 593.27993774 C534.50263403 597.15481168 534.00380654 601.01395182 533.45703125 604.87280273 C533.29114502 606.05084473 533.12525879 607.22888672 532.9543457 608.44262695 C522.3702418 680.8789046 498.56552905 750.61807486 460.14453125 813.18530273 C459.68079102 813.94262695 459.21705078 814.69995117 458.73925781 815.48022461 C445.40891014 837.15428355 430.47980645 857.67451869 414.14453125 877.18530273 C413.73025879 877.68449219 413.31598633 878.18368164 412.88916016 878.69799805 C401.99799826 891.81900538 390.3626518 904.13824889 378.28857422 916.17163086 C376.37870131 918.07608779 374.47430976 919.98591093 372.5703125 921.89624023 C366.59926047 927.87083189 360.62507369 933.7576323 354.14453125 939.18530273 C353.13439484 940.06173057 352.12523173 940.93928183 351.1171875 941.81811523 C342.38701063 949.29442778 333.33762354 956.28950093 324.14453125 963.18530273 C323.37270508 963.76747559 322.60087891 964.34964844 321.80566406 964.94946289 C310.87701376 973.18081972 299.77207522 980.97207895 288.14453125 988.18530273 C287.54286133 988.55929199 286.94119141 988.93328125 286.32128906 989.31860352 C281.96826684 992.00879537 277.56860053 994.61388025 273.14453125 997.18530273 C272.30680176 997.67256836 271.46907227 998.15983398 270.60595703 998.66186523 C228.39737785 1023.10355986 183.42375158 1042.04352447 136.14453125 1054.18530273 C134.93120117 1054.51038818 134.93120117 1054.51038818 133.69335938 1054.84204102 C104.50791159 1062.66087351 74.22869732 1066.92301793 44.14453125 1069.18530273 C42.53026749 1069.31459671 42.53026749 1069.31459671 40.88339233 1069.44650269 C32.93419244 1070.05964312 25.03787464 1070.3568698 17.06640625 1070.38842773 C15.26944809 1070.3989492 15.26944809 1070.3989492 13.43618774 1070.40968323 C9.58893015 1070.42708664 5.74182677 1070.4335363 1.89453125 1070.43530273 C0.57640442 1070.43597748 -0.74172241 1070.43665222 -2.09979248 1070.43734741 C-22.53710542 1070.42975167 -42.58181614 1069.83832064 -62.85546875 1067.18530273 C-64.19201806 1067.01702209 -65.52860742 1066.84905926 -66.86523438 1066.68139648 C-95.89254752 1062.98504751 -124.95902621 1057.06377876 -152.85546875 1048.18530273 C-154.64138428 1047.62335205 -154.64138428 1047.62335205 -156.46337891 1047.05004883 C-223.59428173 1025.83845178 -285.80838196 992.43586954 -339.85546875 947.18530273 C-340.3546582 946.77103027 -340.85384766 946.35675781 -341.36816406 945.92993164 C-354.48917139 935.03876975 -366.80841491 923.40342329 -378.84179688 911.3293457 C-380.7462538 909.41947279 -382.65607694 907.51508125 -384.56640625 905.61108398 C-390.5409979 899.64003195 -396.42779831 893.66584517 -401.85546875 887.18530273 C-402.73189659 886.17516633 -403.60944785 885.16600321 -404.48828125 884.15795898 C-411.96459379 875.42778211 -418.95966694 866.37839503 -425.85546875 857.18530273 C-426.4376416 856.41347656 -427.01981445 855.64165039 -427.61962891 854.84643555 C-435.85179668 843.91670856 -443.64966767 832.81870262 -450.85546875 821.18530273 C-451.32662109 820.42701172 -451.79777344 819.6687207 -452.28320312 818.88745117 C-485.16866987 765.695538 -509.47086004 707.54126688 -521.85546875 646.18530273 C-522.06413574 645.17419434 -522.27280273 644.16308594 -522.48779297 643.12133789 C-525.04401849 630.69626289 -527.25965703 618.24557807 -529.04296875 605.68530273 C-529.19773682 604.62102051 -529.35250488 603.55673828 -529.51196289 602.46020508 C-532.51402652 580.35365497 -533.26200289 558.1669077 -533.23302841 535.88038254 C-533.2304266 533.77621741 -533.23109267 531.67206794 -533.23184204 529.56790161 C-533.22338868 509.06445518 -532.40595033 488.9129555 -529.35498047 468.61401367 C-528.89939015 465.48678471 -528.5281052 462.36744135 -528.203125 459.22436523 C-518.70323832 369.76185627 -477.83160218 280.64590533 -409.85546875 193.18530273 C-409.44119629 192.68611328 -409.02692383 192.18692383 -408.60009766 191.67260742 C-397.70893576 178.55160009 -386.0735893 166.23235657 -373.99951172 154.19897461 C-372.08963881 152.29451768 -370.18524726 150.38469454 -368.28125 148.47436523 C-362.31019797 142.49977358 -356.33601119 136.61297317 -349.85546875 131.18530273 C-348.84533234 130.3088749 -347.83616923 129.43132364 -346.828125 128.55249023 C-338.09794813 121.07617769 -329.04856104 114.08110454 -319.85546875 107.18530273 C-319.08364258 106.60312988 -318.31181641 106.02095703 -317.51660156 105.42114258 C-306.58687457 97.1889748 -295.48886863 89.39110381 -283.85546875 82.18530273 C-283.09717773 81.71415039 -282.33888672 81.24299805 -281.55761719 80.75756836 C-214.73887326 39.44742457 -140.3989606 12.35090217 -62.29296875 3.31030273 C-60.95451401 3.15484482 -60.95451401 3.15484482 -59.58901978 2.99624634 C-39.6977603 0.72194145 -20.01943 -0.00134395 0 0 Z M-118.515625 61.18139648 C-120.94177642 61.91066071 -123.33070062 62.56415462 -125.7890625 63.15795898 C-150.92567924 69.27043047 -175.30236336 78.58247979 -198.85546875 89.18530273 C-199.77328125 89.59603027 -200.69109375 90.00675781 -201.63671875 90.42993164 C-215.85666636 96.84492617 -229.39324597 104.31915045 -242.85546875 112.18530273 C-243.73122559 112.69351563 -244.60698242 113.20172852 -245.50927734 113.7253418 C-268.33267641 127.00330942 -289.61402234 142.23828528 -309.85546875 159.18530273 C-310.3546582 159.5995752 -310.85384766 160.01384766 -311.36816406 160.44067383 C-324.09649611 171.00589352 -336.02008646 182.26050027 -347.73046875 193.93530273 C-348.2288324 194.43098755 -348.72719604 194.92667236 -349.24066162 195.43737793 C-354.99956988 201.17279787 -360.5934089 206.98742956 -365.85546875 213.18530273 C-366.8400026 214.31520615 -367.82564736 215.44414272 -368.8125 216.57202148 C-375.45643156 224.22990018 -381.8134055 232.04231901 -387.85546875 240.18530273 C-388.3462793 240.84481934 -388.83708984 241.50433594 -389.34277344 242.18383789 C-401.92357647 259.15812385 -413.46008216 276.79052073 -423.85546875 295.18530273 C-424.33951172 296.03447266 -424.82355469 296.88364258 -425.32226562 297.75854492 C-439.16688941 322.17431587 -450.57865179 347.70171525 -459.85546875 374.18530273 C-460.16532715 375.05735352 -460.47518555 375.9294043 -460.79443359 376.82788086 C-489.09813237 456.86838864 -495.24305183 547.02086283 -477.85546875 630.18530273 C-477.61538086 631.35448242 -477.37529297 632.52366211 -477.12792969 633.72827148 C-469.85116435 668.83131155 -458.82036307 703.59060039 -443.85546875 736.18530273 C-443.06317871 737.91804443 -443.06317871 737.91804443 -442.25488281 739.68579102 C-420.78194016 786.26064123 -391.62570238 833.76060037 -354.41796875 869.62670898 C-352.69574774 871.34462445 -351.12412602 873.14945917 -349.54296875 874.99780273 C-343.54555574 881.93651375 -336.99888479 888.33707544 -330.02734375 894.29077148 C-327.88535396 896.1592338 -325.80853065 898.08812675 -323.734375 900.03125 C-317.31771272 906.02187091 -310.58143935 911.46744893 -303.62451172 916.81469727 C-301.88737851 918.16057994 -300.16786341 919.52588139 -298.453125 920.90014648 C-283.63606596 932.75677544 -268.02281033 943.26427586 -251.85546875 953.18530273 C-251.18676758 953.5995752 -250.51806641 954.01384766 -249.82910156 954.44067383 C-198.68115712 986.00471324 -141.06130662 1007.2346527 -81.85546875 1017.18530273 C-80.25767462 1017.46968541 -78.66000972 1017.75479545 -77.0625 1018.04077148 C-62.76268832 1020.52296245 -48.30183092 1021.87457452 -33.85546875 1023.18530273 C-33.03820312 1023.26022949 -32.2209375 1023.33515625 -31.37890625 1023.41235352 C-5.09591373 1025.68544443 21.93791288 1024.71261345 48.14453125 1022.18530273 C49.3140332 1022.07283203 50.48353516 1021.96036133 51.68847656 1021.84448242 C65.27782054 1020.50218804 78.76195526 1018.91849458 92.14453125 1016.18530273 C93.16627441 1015.9803418 94.18801758 1015.77538086 95.24072266 1015.56420898 C110.75378862 1012.43106087 126.05139704 1008.95846326 141.14453125 1004.18530273 C141.7774408 1003.9857196 142.41035034 1003.78613647 143.06243896 1003.58050537 C163.53096103 997.1120875 183.61222344 990.15298463 203.14453125 981.18530273 C204.87727295 980.3930127 204.87727295 980.3930127 206.64501953 979.5847168 C240.25107579 964.09092744 272.01623364 945.05349108 301.14453125 922.18530273 C302.04429687 921.4853418 302.9440625 920.78538086 303.87109375 920.06420898 C314.50879519 911.67224452 324.71292911 902.80600574 334.63085938 893.58129883 C336.14911813 892.18107245 337.68320527 890.80045108 339.22265625 889.42358398 C347.76006461 881.74494469 355.62762988 873.51479721 363.40576172 865.07250977 C364.85553062 863.49897514 366.31347959 861.93298215 367.7734375 860.36889648 C372.93549258 854.76358802 377.63703407 848.85445703 382.29296875 842.82983398 C384.08723277 840.51534317 385.91658605 838.24470792 387.80859375 836.00952148 C402.86376321 818.07619742 415.79985243 797.63860774 427.14453125 777.18530273 C427.6019873 776.37287109 428.05944336 775.56043945 428.53076172 774.72338867 C454.65588848 728.28062797 473.03471049 678.3516197 482.62158203 625.95825195 C483.05104569 623.6810119 483.51154198 621.41950459 484.015625 619.15795898 C497.46708411 558.31275793 493.12618616 490.77084778 480.14453125 430.18530273 C479.99693359 429.4848584 479.84933594 428.78441406 479.69726562 428.06274414 C473.33255784 398.25095758 463.42254245 369.04711262 451.14453125 341.18530273 C450.68030762 340.13052734 450.21608398 339.07575195 449.73779297 337.98901367 C428.91530427 291.03786497 401.04450709 247.67208727 366.41015625 209.69702148 C365.17750079 208.33047414 363.95112299 206.95766534 362.75952148 205.55517578 C357.59406561 199.50560655 352.00630901 193.8951548 346.37475586 188.28515625 C344.71026848 186.62602953 343.05119678 184.96162222 341.39257812 183.29663086 C335.81535245 177.71565334 330.16696007 172.28855015 324.14453125 167.18530273 C323.09579598 166.2603243 322.04884858 165.3333139 321.00390625 164.40405273 C311.15190083 155.74881336 300.71779978 147.93266934 290.14453125 140.18530273 C289.4892041 139.70287109 288.83387695 139.22043945 288.15869141 138.72338867 C267.07551985 123.23998952 244.56520767 109.37383872 220.96728516 98.07543945 C219.14741892 97.18671292 217.35408742 96.25850962 215.5625 95.31420898 C197.26029093 85.73346373 177.76886968 78.49460275 158.22119141 71.90112305 C155.29648672 70.8929836 152.4126337 69.78037204 149.51953125 68.68530273 C130.93644596 62.05471831 111.4815488 57.92168103 92.14453125 54.18530273 C91.40009766 54.03609375 90.65566406 53.88688477 89.88867188 53.7331543 C23.90547018 40.51785707 -53.78279523 41.17306728 -118.515625 61.18139648 Z " fill="#FFFDFD" transform="translate(1021.85546875,488.814697265625)"/>
<path d="M0 0 C3.36139143 1.34455657 6.31595133 2.62317176 9.45703125 4.328125 C10.30958496 4.79081787 11.16213867 5.25351074 12.04052734 5.73022461 C12.95527832 6.23175049 13.8700293 6.73327637 14.8125 7.25 C16.26197021 8.04192749 16.26197021 8.04192749 17.74072266 8.84985352 C25.87736428 13.32376347 33.88668052 17.99981729 41.88720703 22.71142578 C49.89978705 27.40898961 58.02885807 31.85729348 66.21264648 36.24804688 C73.54481788 40.18918627 80.7899418 44.26128475 88.00341797 48.41503906 C94.74160422 52.29256703 101.52082178 56.09206771 108.3125 59.875 C116.62195577 64.50668835 124.86414622 69.2370989 133.0625 74.0625 C142.01067518 79.32440809 151.066752 84.34091301 160.21337891 89.24853516 C167.54307846 93.18811399 174.78516312 97.25962146 181.99682617 101.41064453 C188.80255711 105.32581411 195.64436347 109.17295372 202.5 113 C210.18935025 117.29452468 217.86026595 121.61780637 225.5 126 C234.15416505 130.96310155 242.84968402 135.84937471 251.55810547 140.71655273 C263.34076635 147.30343149 275.08719963 153.95391764 286.83398438 160.60449219 C289.68073174 162.21595104 292.52775631 163.82691824 295.375 165.4375 C296.31730469 165.97052734 297.25960938 166.50355469 298.23046875 167.05273438 C305.35056146 171.07650454 312.48596379 175.07245882 319.625 179.0625 C328.1281795 183.81558275 336.60133036 188.61723825 345.05175781 193.46337891 C352.85799203 197.93357773 360.70582557 202.32787628 368.55810547 206.71655273 C380.34076635 213.30343149 392.08719963 219.95391764 403.83398438 226.60449219 C405.73040132 227.6779973 407.62696781 228.75123827 409.52368164 229.82421875 C411.41394466 230.89373309 413.3037613 231.96403677 415.19311523 233.03515625 C420.40041234 235.98296909 425.62252415 238.90110362 430.86328125 241.7890625 C432.00168457 242.4188501 433.14008789 243.0486377 434.31298828 243.69750977 C436.51525209 244.91463415 438.72053333 246.12631929 440.92919922 247.33178711 C441.92580566 247.88358643 442.92241211 248.43538574 443.94921875 249.00390625 C444.82924561 249.48674072 445.70927246 249.9695752 446.6159668 250.46704102 C449.10383456 252.06676674 450.9916678 253.83854666 453 256 C439.20160863 264.77777186 425.30121518 273.38219556 411.36279297 281.93554688 C405.90567481 285.28572773 400.45302054 288.64315529 395 292 C392.8333557 293.33336968 390.66668901 294.66670297 388.5 296 C387.4275 296.66 386.355 297.32 385.25 298 C278 364 170.75 430 60.24755859 498.00146484 C58.08898521 499.32984266 55.93045629 500.65829275 53.77197266 501.98681641 C48.80503903 505.04379489 43.83774531 508.10018108 38.86871338 511.15374756 C37.15780588 512.20518019 35.44704482 513.2568507 33.73632812 514.30859375 C31.52436461 515.66841792 29.31213225 517.02780488 27.09960938 518.38671875 C22.34562088 521.30999695 17.59904208 524.2426727 12.8828125 527.2265625 C12.13080566 527.70174316 11.37879883 528.17692383 10.60400391 528.66650391 C9.24688535 529.52663173 7.89219685 530.39061159 6.54052734 531.25927734 C2.21894147 534 2.21894147 534 0 534 C0 357.78 0 181.56 0 0 Z " fill="#FFFEFE" transform="translate(838,757)"/>
</svg>
